{"title":"Christmas Magic 2011 HDTVRiP XViD-NoGRP","uid":6900776,"size":733637647,"categoryP":"video","categoryS":"movies","magnet":"?xt=urn:btih:83b50963829fde874c70dcaca313b677b2d952ba&amp;dn=Christmas+Magic+2011+HDTVRiP+XViD-NoGRP&amp;tr=udp%3A%2F%2Ftracker.openbittorrent.com%3A80&amp;tr=udp%3A%2F%2Fopen.demonii.com%3A1337&amp;tr=udp%3A%2F%2Ftracker.coppersurfer.tk%3A6969&amp;tr=udp%3A%2F%2Fexodus.desync.com%3A6969","seeders":4,"leechers":1,"uploader":"LegendET","files":2,"time":1324340274,"description":"\n[center]\n[img]http://img819.imageshack.us/img819/4408/christmasmagic300x254.jpg[/img]\n\n\n\nGenre : Drama / Fantasy\n\nPlot : Carrie Bishop (Booth) lives for her successful career as an event planner in New York City, but her life changes in an instant after a nasty car accident in a snowstorm. Carrie suffers head trauma and regains consciousness in Central Park with an older man, Henry (Derek McGrath, &quot;Little Mosque on the Prairie&quot;). Henry is Carrie's spirit guide and is there to help her &quot;pass over&quot; to Heaven. But before Carrie can move on, she must fulfill one last task on Earth - a type of Angel Duty. Henry tells Carrie that she must help guide a widowed, young restaurant owner, Scott Walker, (McGillion) who has recently considered suicide because his beloved restaurant/catering business is utterly failing. Carrie befriends Scott and his 8-year-old daughter and immediately displays a knack for promoting the restaurant. But time isn't on Carrie's side on this mission. She has until midnight Christmas Eve to turn the eatery around\n\n\nGeneral \nComplete name : Christmas.Magic.2011.HDTVRip.XviD-NoGRP.avi \nFormat : AVI \nFormat/Info : Audio Video Interleave \nFile size : 700 MiB \nDuration : 1h 23mn \nOverall bit rate : 1 172 Kbps \n\nVideo \nID : 0 \nFormat : MPEG-4 Visual \nFormat profile : Advanced Simple@L5 \nFormat settings, BVOP : 2 \nFormat settings, QPel : No \nFormat settings, GMC : No warppoints \nFormat settings, Matrix : Default (H.263) \nCodec ID : XVID \nCodec ID/Hint : XviD \nDuration : 1h 23mn \nBit rate : 1 030 Kbps \nWidth : 624 pixels \nHeight : 352 pixels \nDisplay aspect ratio : 16:9 \nFrame rate : 29.970 fps \nColor space : YUV \nChroma subsampling : 4:2:0 \nBit depth : 8 bits \nScan type : Progressive \nCompression mode : Lossy \nBits/(Pixel*Frame) : 0.156 \nStream size : 615 MiB (88%) \nWriting library : XviD 63 \n\nAudio \nID : 1 \nFormat : MPEG Audio \nFormat version : Version 1 \nFormat profile : Layer 3 \nCodec ID : 55 \nCodec ID/Hint : MP3 \nDuration : 1h 23mn \nBit rate mode : Constant \nBit rate : 128 Kbps \nChannel(s) : 2 channels \nSampling rate : 48.0 KHz \nCompression mode : Lossy \nStream size : 76.4 MiB (11%) \nAlignment : Split accross interleaves \nInterleave, duration : 24 ms (0.72 video frame)\n &lt;a href=&quot;\nhttp://www.imdb.com/title/tt2112127/&quot; rel=&quot;nofollow&quot; target=&quot;_NEW&quot;&gt;\nhttp://www.imdb.com/title/tt2112127/&lt;/a&gt;\n\n\n[img]http://img819.imageshack.us/img819/3203/vlcsnap2011122009h09m36.png[/img]\n[img]http://img854.imageshack.us/img854/3360/vlcsnap2011122009h09m51.png[/img]\n[img]http://img641.imageshack.us/img641/7503/vlcsnap2011122009h12m00.png[/img]\n[img]http://img10.imageshack.us/img10/6055/vlcsnap2011122009h12m23.png[/img]\n[img]http://img853.imageshack.us/img853/9220/vlcsnap2011122009h09m15.png[/img][/center]","torrent":{"xt":"urn:btih:83b50963829fde874c70dcaca313b677b2d952ba","amp;dn":"Christmas+Magic+2011+HDTVRiP+XViD-NoGRP","amp;tr":["udp%3A%2F%2Ftracker.openbittorrent.com%3A80","udp%3A%2F%2Fopen.demonii.com%3A1337","udp%3A%2F%2Ftracker.coppersurfer.tk%3A6969","udp%3A%2F%2Fexodus.desync.com%3A6969"],"infoHash":"83b50963829fde874c70dcaca313b677b2d952ba","infoHashBuffer":{"type":"Buffer","data":[131,181,9,99,130,159,222,135,76,112,220,172,163,19,182,119,178,217,82,186]},"announce":[],"urlList":[]}}